<?xml version="1.0" standalone="no"?><svg xmlns="http://www.w3.org/2000/svg" viewBox="0 0 1440 320"><path fill="#EFDAD7" fill-opacity="1" d="M0,288L26.7,288C53.3,288,107,288,160,256C213.3,224,267,160,320,122.7C373.3,85,427,75,480,74.7C533.3,75,587,85,640,112C693.3,139,747,181,800,170.7C853.3,160,907,96,960,106.7C1013.3,117,1067,203,1120,224C1173.3,245,1227,203,1280,192C1333.3,181,1387,203,1413,213.3L1440,224L1440,0L1413.3,0C1386.7,0,1333,0,1280,0C1226.7,0,1173,0,1120,0C1066.7,0,1013,0,960,0C906.7,0,853,0,800,0C746.7,0,693,0,640,0C586.7,0,533,0,480,0C426.7,0,373,0,320,0C266.7,0,213,0,160,0C106.7,0,53,0,27,0L0,0Z"></path></svg>